<svg xmlns="http://www.w3.org/2000/svg" width="1041" height="876" viewBox="0 0 1041 876">
  <g fill="none" fill-rule="evenodd" stroke="#E6DC52" stroke-width="4" opacity=".7" transform="rotate(-90 455.42 456.36)">
    <path d="M512 439.44C696.276324 439.44 791.516324 439.44 797.72 439.44 803.923676 439.44 763.940303 439.44 677.769882 439.44L677.769882 733C677.769882 776.299124 712.870758 811.4 756.169882 811.4L917.72 811.4M474.82 439.34L474.82 576.74C474.82 620.039124 439.719124 655.14 396.42 655.14L.78 655.14M475.8 533.62L677.68 533.62"/>
    <polyline points="185.72 654.16 185.72 936.4 918.815 936.4"/>
    <circle cx="223.18" cy="440.18" r="89.18"/>
    <circle cx="223.06" cy="440.06" r="46.06"/>
    <path d="M220.02 529.68L220.02 655.2M220.98 350.94L220.98.94M512.92 439.44L313 439.44M134.276875 439.44L20 439.44M677.68 732.56L185.78 732.56M457.18 935.42L457.18 911.9C457.18 868.600876 422.079124 833.5 378.78 833.5L7.80734375 833.5M284.7 936.36L284.7 1142.2M633.58 936.4L633.58 1069.68M735.5 936.36L735.5 1142.2"/>
  </g>
</svg>
