<?xml version="1.0" encoding="utf-8"?>
<!-- Generator: Adobe Illustrator 16.0.0, SVG Export Plug-In . SVG Version: 6.00 Build 0)  -->
<!DOCTYPE svg PUBLIC "-//W3C//DTD SVG 1.1//EN" "http://www.w3.org/Graphics/SVG/1.1/DTD/svg11.dtd">
<svg version="1.1" id="Layer_1" xmlns="http://www.w3.org/2000/svg" xmlns:xlink="http://www.w3.org/1999/xlink" x="0px" y="0px"
	 width="343px" height="445px" viewBox="0 0 343 445" enable-background="new 0 0 343 445" xml:space="preserve">
<g>
	<path fill="none" d="M39.516,461.281h325.766V134.513H39.516V461.281z"/>
	<g>
		<path fill="#282828" d="M73.363,412.754c0-15.644,12.521-28.326,27.967-28.326s27.643,10.51,27.965,28.326
			c0.361,19.919-12.52,28.326-27.965,28.326C85.884,441.08,73.363,428.398,73.363,412.754 M286.947,416.617
			c-0.117-20.244,12.377-28.326,27.644-28.326s25.384,8.082,28.237,28.185c1.07,22.659-12.971,28.467-28.237,28.467
			S287.04,432.26,286.947,416.617"/>
		<path fill="#282828" d="M279.318,425.629l4.91-1.287c0.148-0.638-3.638-25.997,16.732-35.08
			c5.532-2.467,13.904-2.724,25.118-0.771c2.729-3.725,4.093-6.796,4.093-9.212c0,0-20.779-3.972-34.961,3.862
			C274.234,394.729,279.52,424.726,279.318,425.629L279.318,425.629z M266.605,415.687c5.934-9.345,17.164-28.497,33.69-57.458
			l-2.543-31.096c-22.883,42.489-36.868,67.145-41.953,73.968c-9.747,0.012-57.421,0.012-143.022,0l-0.961,14.586H266.605z"/>
		<path fill="#282828" d="M110.008,406.7c-2.511,0.852-4.445,3.051-4.802,5.828c-0.501,3.894,2.289,7.451,6.229,7.944
			c32.131,4.03,59.488,5.156,80.033,5.156c6.493,0,12.309-0.111,17.373-0.281c23.027-0.768,35.924-2.793,36.46-2.878
			c3.923-0.627,6.589-4.274,5.955-8.149c-0.349-2.115-1.634-3.96-3.499-5.019c3.258-1.097,5.338-4.387,4.77-7.856
			c-0.633-3.875-4.326-6.508-8.25-5.882c-0.498,0.08-50.764,7.843-129.758-2.064c-3.94-0.496-7.543,2.261-8.043,6.154
			C106.102,402.576,107.58,405.311,110.008,406.7L110.008,406.7z"/>
		<path fill="#282828" d="M111.906,403.097h25.476c-0.284-0.54-0.284-18.939-20.134-27.037c-19.131-7.805-37.921-0.701-43.904,3.219
			l3.461,3.862c0.527-0.394,21.53-6.115,32.03,1.018C114.682,388.128,111.863,403.018,111.906,403.097L111.906,403.097z"/>
	</g>
	<path fill="#282828" d="M304.078,401.071l10.004-1.788l-42.335-243.364l-10.004,1.788L304.078,401.071z"/>
	<path fill="#FCC0D4" d="M281.661,279.598l12.505-2.207l-16.092-91.259l-12.506,2.205L281.661,279.598z"/>
	<path fill="#E6DC52" d="M297.753,370.858l12.505-2.206l-16.092-91.26l-12.505,2.205L297.753,370.858z"/>
	<path fill="#282828" d="M297.236,158.417c3.856,1.893,3.856,8.481,0,10.727c-4.502,1.894-18.116,2.524-25.719,1.894
		c-7.604-0.631-14.146-4.139-14.146-9.466c0-5.326,3.215-8.077,14.146-8.582C282.447,152.485,289.045,153.907,297.236,158.417z"/>
	<path fill="#282828" d="M253.509,160.324c-1.622-0.768-2.789-3.432-1.983-5.378c0.631-1.527,2.93-2.561,4.688-1.792
		c2.587,1.23,4.103,2.255,5.86,3.713c0.925,0.606,1.852,2.915,1.172,4.481c-0.612,1.409-2.68,2.158-4.562,1.536
		C256.743,161.988,256.743,162.244,253.509,160.324L253.509,160.324z"/>
	<path fill="#282828" d="M251.264,157.999c0-2.736,0.848-4.239,4.242-4.982c3.393-0.744,5.938,2.006,5.938,4.81
		s-1.43,5.278-4.241,5.278S251.264,160.736,251.264,157.999z"/>
	<g>
		<path fill="none" d="M-79.998,424.645h434.74v-434.74h-434.74V424.645z"/>
		<path fill="#FF3535" d="M175.432,365.186l-3.386,39.237c0,0,4.675,0.21,11.485,0.499c0.074-9.335,1.804-17.92,2.55-22.225
			c4.667,3.524,6.37,5.214,7.606,6.465c10.022,10.143,25.047,17.274,30.606,17.214c10.847-0.119,18.674-2.41,12.649-10.842
			c-5.088-7.125-27.789-19.164-31.103-28.5C188.975,365.829,175.432,365.186,175.432,365.186L175.432,365.186z"/>
		<path fill="#282828" d="M206.184,352.9l-0.492,14.21l-30.381-1.96l0.717-13.92L206.184,352.9z"/>
		<path fill="#FCC0D4" d="M188.542,271.307c-2.171,15.926-21.317,61.745-18.131,76.447c0.489,9.801,43.858,9.801,49.493,2.205
			c5.637-7.596,26.464-68.115,24.259-106.584c0,0-33.813-83.063-47.535-90.66c-13.722,1.961-24.992-4.9-50.964-14.21
			c-4.166,25.237,3.43,53.169,19.846,86.982C171.702,238.242,190.748,255.135,188.542,271.307"/>
		<path fill="#FF3535" d="M39.812,263.57L0.43,263.467c0,0,0.18,4.676,0.459,11.485c9.309-0.703,18.008,0.304,22.361,0.688
			c-3.125,4.945-4.666,6.783-5.811,8.121c-9.271,10.832-15.127,26.396-14.603,31.934c1.022,10.798,3.957,18.408,11.858,11.702
			c6.676-5.665,16.781-29.29,25.81-33.37C40.3,277.12,39.812,263.57,39.812,263.57L39.812,263.57z"/>
		<path fill="#282828" d="M54.618,293.191l-14.203,0.695l-0.578-30.439L53.77,263L54.618,293.191z"/>
		<path fill="#4655FF" d="M199.961,148.893c-23.719-5.177-43.52-7.175-53.598-10.695c-11.538,10.406-30.092,102.924-30.092,102.924
			s-49.222,4.009-64.72,19.937c-1.913,19.318-4.681,22.313-0.208,35.045c22.441,3.957,102.053-5.891,118.146-20.967
			C189.148,256.723,202.9,161.852,199.961,148.893"/>
		<path fill="#FFFFFF" d="M205.609,156.612c-32.942-5.316-53.578-13.491-62.305-17.229c-0.693-13.116,10.862-46.526,16.965-58.503
			c6.102-11.976,23.963-21.32,41.642-8.13c12.188,9.096,18.892,22.843,14.422,42.268
			C213.781,126.099,212.436,133.179,205.609,156.612"/>
		<g>
			<path fill="#E6DC52" d="M259.809,166.489c4.262,3.118,10.707-7.832,4.205-17.465c-1.666-2.467-9.697-15.605-19.576-12.37
				c-2.826,0.926-8.736,21.823-5.826,22.45c6.219,1.34,12.172-1.101,16.119,0.604C258.314,161.256,258.666,165.653,259.809,166.489
				L259.809,166.489z"/>
			<path fill="#282828" d="M196.873,97.586c-5.145-15.437-26.59-14.253-32.578,0.45c-5.986,14.703-21.082,53.945-19.122,66.686
				c1.961,12.742,7.177,18.262,16.873,18.262c9.698,0,67.138-17.822,79.12-22.445c3.16-7.546,7.064-16.286,9.781-23.91
				c2.718-7.624-55.338,22.233-63.875,13.392C180.212,142.915,200.279,107.807,196.873,97.586L196.873,97.586z"/>
		</g>
		<g>
			<path fill="#E6DC52" d="M219.428,62.145c4.909-10.528,8.137-27.815-5.996-36.817c-19.908-12.683-27.219,8.511-32.129,19.04
				c-4.908,10.527-0.354,23.04,10.174,27.95C202.004,77.227,214.518,72.673,219.428,62.145"/>
			<path fill="#FF3535" d="M103.413,100.526c-34.3-10.163,18.062-29.609,7.106-42.634c-13.358-15.881,21.517-21.482,33.775-19.636
				c17.953,2.704,16.755-12.913,31.939-21.126c13.57-7.34,29.75-7.116,33.301,1.568c2.777,6.797,23.058-2.523,18.74,17.827
				c-2.947,13.887-17.01-2.975-24.35,9.685c-4.68,8.073-15.667,20.543-23.564,20.173c-11.234-0.526-20.858,22.557-34.805,19.197
				C125.22,80.679,116.645,104.446,103.413,100.526L103.413,100.526z"/>
		</g>
		<g>
			<g>
				<path fill="#282828" d="M195.57,74.125c-1.938,0.337-3.832,0.016-5.688-0.963c-8.898-5.055-9.148-20.69-7.98-29.68l4.674-1.38
					c-0.92,3.202-1.549,8.854-0.779,15.406c0.923,7.858,3.829,14.52,9.775,16.617H195.57z"/>
				<path fill="#282828" d="M194.639,48.093c2.676,10.683-7.5,11.445-17.143,5c-13.764-6.568-14.684-29.846-4.963-40.878
					c5.003-5.676,13.391-13.22,31.543-10.966c13.471,1.674,20.209,7.214,24.845,14.544c3.503,5.537,7.595,21.353,1.113,23.873
					c-4.374,1.591-12.661-0.836-20.802-2.259C202.208,36.18,191.963,37.41,194.639,48.093L194.639,48.093z"/>
			</g>
			<path fill="none" d="M148.771,65.573l75.156,21.55l21.551-75.156l-75.156-21.55L148.771,65.573z"/>
		</g>
	</g>
</g>
</svg>
