<?xml version="1.0" encoding="utf-8"?>
<!-- Generator: Adobe Illustrator 16.0.0, SVG Export Plug-In . SVG Version: 6.00 Build 0)  -->
<!DOCTYPE svg PUBLIC "-//W3C//DTD SVG 1.1//EN" "http://www.w3.org/Graphics/SVG/1.1/DTD/svg11.dtd">
<svg version="1.1" id="Layer_1" xmlns="http://www.w3.org/2000/svg" xmlns:xlink="http://www.w3.org/1999/xlink" x="0px" y="0px"
	 width="343px" height="445px" viewBox="0 0 343 445" enable-background="new 0 0 343 445" xml:space="preserve">
<g>
	<path fill="none" d="M303.486,134.925H-22.28v326.768h325.766V134.925z"/>
	<g>
		<path fill="#282828" d="M269.639,413.166c0,15.645-12.521,28.326-27.967,28.326c-15.445,0-28.326-8.407-27.965-28.326
			c0.322-17.816,12.52-28.326,27.965-28.326S269.639,397.522,269.639,413.166 M56.054,417.029
			c-0.092,15.643-12.376,28.325-27.643,28.325c-15.266,0-29.307-5.808-28.237-28.467c2.853-20.103,12.97-28.185,28.237-28.185
			S56.172,396.785,56.054,417.029"/>
		<path fill="#282828" d="M63.683,426.041c-0.2-0.903,5.085-30.899-15.892-42.488c-14.181-7.834-34.961-3.862-34.961-3.862
			c0,2.416,1.364,5.487,4.093,9.212c11.213-1.952,19.586-1.695,25.118,0.771c20.37,9.083,16.584,34.442,16.733,35.08L63.683,426.041
			L63.683,426.041z M231.186,416.099l-0.961-14.586c-85.602,0.012-133.275,0.012-143.022,0c-5.085-6.823-19.07-31.479-41.953-73.968
			l-2.543,31.096c16.527,28.961,27.757,48.113,33.69,57.458H231.186z"/>
		<path fill="#282828" d="M232.994,407.112c2.428-1.39,3.906-4.124,3.531-7.047c-0.5-3.894-4.103-6.65-8.043-6.154
			c-78.995,9.907-129.26,2.145-129.758,2.064c-3.923-0.626-7.616,2.007-8.25,5.882c-0.568,3.47,1.512,6.76,4.77,7.856
			c-1.865,1.059-3.151,2.903-3.499,5.019c-0.634,3.875,2.032,7.522,5.955,8.149c0.537,0.085,13.433,2.11,36.46,2.878
			c5.065,0.17,10.88,0.281,17.373,0.281c20.545,0,47.902-1.126,80.033-5.156c3.94-0.493,6.73-4.051,6.229-7.944
			C237.439,410.163,235.505,407.964,232.994,407.112L232.994,407.112z"/>
		<path fill="#282828" d="M231.096,403.51c0.043-0.08-2.775-14.97,3.071-18.939c10.5-7.133,31.503-1.411,32.03-1.018l3.461-3.862
			c-5.983-3.92-24.773-11.023-43.904-3.219c-19.85,8.098-19.85,26.497-20.134,27.037L231.096,403.51L231.096,403.51z"/>
	</g>
	<path fill="#282828" d="M81.259,158.119l-10.004-1.788L28.92,399.695l10.004,1.788L81.259,158.119z"/>
	<path fill="#FCC0D4" d="M77.433,188.748l-12.505-2.205l-16.092,91.259l12.505,2.207L77.433,188.748z"/>
	<path fill="#E6DC52" d="M61.341,280.01l-12.505-2.205l-16.092,91.26l12.505,2.206L61.341,280.01z"/>
	<path fill="#282828" d="M71.485,153.402c10.93,0.505,14.145,3.256,14.145,8.582c0,5.327-6.542,8.835-14.145,9.466
		c-7.603,0.63-21.218,0-25.719-1.894c-3.857-2.246-3.857-8.834,0-10.727C53.957,154.319,60.555,152.897,71.485,153.402z"/>
	<path fill="#282828" d="M89.493,160.736c-3.234,1.92-3.234,1.664-5.175,2.56c-1.882,0.622-3.95-0.127-4.562-1.536
		c-0.68-1.566,0.247-3.875,1.172-4.481c1.758-1.458,3.273-2.483,5.86-3.713c1.759-0.769,4.057,0.265,4.689,1.792
		C92.282,157.304,91.115,159.968,89.493,160.736L89.493,160.736z"/>
	<path fill="#282828" d="M85.8,163.517c-2.812,0-4.242-2.474-4.242-5.278s2.545-5.554,5.938-4.81
		c3.394,0.743,4.242,2.246,4.242,4.982C91.738,161.148,88.611,163.517,85.8,163.517z"/>
	<g>
		<path fill="none" d="M423-9.684H-11.74v434.74H423V-9.684z"/>
		<path fill="#FF3535" d="M167.57,365.598c0,0-13.543,0.644-30.409,1.849c-3.313,9.336-26.014,21.375-31.103,28.5
			c-6.024,8.432,1.804,10.723,12.65,10.842c5.56,0.061,20.584-7.071,30.606-17.214c1.237-1.251,2.94-2.94,7.607-6.465
			c0.746,4.305,2.475,12.89,2.55,22.225c6.81-0.289,11.485-0.499,11.485-0.499L167.57,365.598L167.57,365.598z"/>
		<path fill="#282828" d="M166.975,351.643l0.716,13.92l-30.381,1.96l-0.492-14.21L166.975,351.643z"/>
		<path fill="#FCC0D4" d="M154.46,271.719c-2.206-16.172,16.84-33.064,23.032-45.819c16.416-33.813,24.012-61.745,19.846-86.982
			c-25.972,9.31-37.243,16.171-50.964,14.21c-13.721,7.597-47.535,90.66-47.535,90.66c-2.205,38.469,18.622,98.988,24.258,106.584
			c5.635,7.596,49.004,7.596,49.494-2.205C175.777,333.464,156.631,287.645,154.46,271.719"/>
		<path fill="#FF3535" d="M303.189,263.982c0,0-0.487,13.55-0.692,30.457c9.028,4.08,19.134,27.705,25.81,33.37
			c7.901,6.706,10.836-0.904,11.858-11.702c0.524-5.537-5.331-21.102-14.603-31.934c-1.145-1.338-2.686-3.176-5.811-8.121
			c4.354-0.385,13.053-1.392,22.361-0.688c0.279-6.81,0.459-11.485,0.459-11.485L303.189,263.982L303.189,263.982z"/>
		<path fill="#282828" d="M289.232,263.412l13.933,0.447l-0.578,30.439l-14.203-0.695L289.232,263.412z"/>
		<path fill="#4655FF" d="M143.041,149.305c-2.94,12.959,10.813,107.83,30.471,126.244c16.094,15.076,95.705,24.924,118.146,20.967
			c4.473-12.731,1.705-15.727-0.208-35.045c-15.498-15.928-64.72-19.937-64.72-19.937s-18.554-92.518-30.092-102.924
			C186.561,142.13,166.76,144.128,143.041,149.305"/>
		<path fill="#FFFFFF" d="M137.392,157.024c-6.825-23.433-8.172-30.513-10.723-41.594c-4.47-19.425,2.233-33.172,14.422-42.268
			c17.678-13.19,35.54-3.846,41.642,8.13c6.103,11.977,17.658,45.387,16.965,58.503
			C190.971,143.533,170.335,151.708,137.392,157.024"/>
		<g>
			<path fill="#E6DC52" d="M83.194,166.9c1.142-0.835,1.493-5.232,5.077-6.78c3.948-1.705,9.901,0.736,16.12-0.604
				c2.91-0.627-3-21.524-5.827-22.45c-9.879-3.235-17.91,9.903-19.576,12.37C72.487,159.069,78.931,170.019,83.194,166.9
				L83.194,166.9z"/>
			<path fill="#282828" d="M146.129,97.998c-3.407,10.221,16.661,45.329,9.8,52.435c-8.536,8.841-66.592-21.016-63.875-13.392
				c2.717,7.624,6.622,16.364,9.782,23.91c11.982,4.623,69.422,22.445,79.12,22.445c9.696,0,14.912-5.52,16.873-18.262
				c1.96-12.741-13.136-51.983-19.122-66.686C172.719,83.745,151.274,82.561,146.129,97.998L146.129,97.998z"/>
		</g>
		<g>
			<path fill="#E6DC52" d="M123.574,62.557c4.91,10.528,17.424,15.082,27.952,10.173c10.527-4.91,15.082-17.423,10.173-27.95
				c-4.91-10.529-12.22-31.723-32.129-19.04C115.438,34.742,118.665,52.029,123.574,62.557"/>
			<path fill="#FF3535" d="M239.59,100.938c-13.232,3.92-21.808-19.847-42.145-14.946c-13.946,3.36-23.57-19.723-34.805-19.197
				c-7.897,0.37-18.884-12.1-23.564-20.173c-7.34-12.66-21.402,4.202-24.349-9.685c-4.318-20.35,15.962-11.03,18.74-17.827
				c3.55-8.684,19.73-8.908,33.3-1.568c15.185,8.213,13.987,23.83,31.94,21.126c12.259-1.846,47.134,3.755,33.775,19.636
				C221.527,71.329,273.889,90.775,239.59,100.938L239.59,100.938z"/>
		</g>
		<g>
			<g>
				<path fill="#282828" d="M147.43,74.537c5.946-2.097,8.852-8.759,9.775-16.617c0.769-6.552,0.14-12.204-0.779-15.406l4.674,1.38
					c1.167,8.99,0.917,24.625-7.981,29.68C151.264,74.553,149.369,74.874,147.43,74.537L147.43,74.537z"/>
				<path fill="#282828" d="M148.364,48.505c2.675-10.683-7.57-11.913-14.594-10.686c-8.141,1.423-16.428,3.85-20.802,2.259
					c-6.482-2.52-2.39-18.336,1.113-23.873c4.636-7.33,11.374-12.87,24.845-14.544c18.152-2.254,26.54,5.29,31.543,10.966
					c9.72,11.032,8.8,34.31-4.963,40.878C155.863,59.95,145.688,59.188,148.364,48.505L148.364,48.505z"/>
			</g>
			<path fill="none" d="M172.68-9.171l-75.156,21.55l21.55,75.156l75.156-21.55L172.68-9.171z"/>
		</g>
	</g>
</g>
</svg>
